<svg width="800" height="800" viewBox="0 0 800 800" fill="none" xmlns="http://www.w3.org/2000/svg">
<path d="M683.187 368.075C748.925 368.075 788.062 407.238 788.062 467.213V747.963C788.062 769.713 786.112 787.325 786.112 787.325H485.912V514.463H473.675L417.95 597.6C408.875 609.975 390.45 615.975 375.775 615.975H244.962C239.796 615.98 234.679 614.967 229.904 612.994C225.13 611.02 220.791 608.126 217.135 604.475C213.48 600.824 210.58 596.489 208.6 591.716C206.621 586.944 205.601 581.829 205.6 576.663C205.6 554.988 223.212 537.875 244.962 537.875H363.937L446.462 413.05C466.275 382.863 502.937 368.463 536.062 368.463C536.062 456.25 557.937 493.4 597.487 493.4V639.35C591.869 641.764 587.081 645.771 583.716 650.876C580.35 655.981 578.554 661.96 578.55 668.075C578.531 672.157 579.322 676.203 580.875 679.978C582.428 683.753 584.713 687.184 587.598 690.071C590.484 692.959 593.912 695.247 597.686 696.803C601.46 698.359 605.505 699.153 609.587 699.138C626.85 699.138 640.675 684.95 640.675 667.65C640.675 654.775 632.862 643.725 621.737 638.963V492.963C661.262 492.95 683.162 455.85 683.162 368.075H683.187ZM658.525 368.075C657.825 458.063 642.262 469.9 609.6 469.9C576.975 469.9 561.4 458.05 560.712 368.075H658.525ZM609.062 165.413C620.855 165.413 632.532 167.736 643.426 172.25C654.321 176.764 664.219 183.38 672.556 191.72C680.893 200.061 687.505 209.962 692.014 220.858C696.524 231.755 698.842 243.433 698.837 255.225C698.837 279.036 689.379 301.872 672.543 318.71C655.708 335.548 632.873 345.009 609.062 345.013C585.246 345.013 562.404 335.554 545.56 318.717C528.715 301.879 519.247 279.042 519.237 255.225C519.237 243.43 521.561 231.75 526.075 220.852C530.589 209.955 537.206 200.054 545.547 191.714C553.888 183.374 563.791 176.758 574.689 172.246C585.587 167.733 597.267 165.411 609.062 165.413Z" fill="white"/>
<path d="M206 100V400" stroke="white" stroke-width="100" stroke-miterlimit="10"/>
<path d="M56 250H356" stroke="white" stroke-width="100" stroke-miterlimit="10"/>
</svg>
