<svg width="800" height="800" viewBox="0 0 800 800" fill="none" xmlns="http://www.w3.org/2000/svg">
<path d="M686.784 208H608V124.384C608 64.608 560.832 16 500.896 16H299.12C239.152 16 192 64.608 192 124.384V208H113.2C59.504 208 16 249.456 16 302.992V671.104C16 724.624 59.504 768 113.2 768H686.784C740.464 768 784 724.624 784 671.088V302.992C784 249.456 740.464 208 686.784 208ZM256 124.384C256 102 276.672 80 299.12 80H500.896C523.28 80 544 102 544 124.384V208H256V124.384ZM576 560H464V672H336V560H224V432H336V320H464V432H576V560Z" fill="#8B5F3B"/>
</svg>
