<svg width="800" height="800" viewBox="0 0 800 800" fill="none" xmlns="http://www.w3.org/2000/svg">
<path d="M466.667 66.6665H333.334C306.812 66.6665 281.377 77.2022 262.623 95.9558C243.869 114.709 233.334 140.145 233.334 166.667V200H166.667C140.145 200 114.71 210.536 95.9563 229.289C77.2027 248.043 66.667 273.478 66.667 300V633.333C66.667 659.855 77.2027 685.29 95.9563 704.044C114.71 722.797 140.145 733.333 166.667 733.333H633.334C659.855 733.333 685.291 722.797 704.044 704.044C722.798 685.29 733.334 659.855 733.334 633.333V300C733.334 273.478 722.798 248.043 704.044 229.289C685.291 210.536 659.855 200 633.334 200H566.667V166.667C566.667 140.145 556.131 114.709 537.378 95.9558C518.624 77.2022 493.189 66.6665 466.667 66.6665ZM300 166.667C300 157.826 303.512 149.347 309.763 143.096C316.015 136.845 324.493 133.333 333.334 133.333H466.667C475.508 133.333 483.986 136.845 490.237 143.096C496.488 149.347 500 157.826 500 166.667V200H300V166.667ZM666.667 300V633.333C666.667 642.174 663.155 650.652 656.904 656.903C650.653 663.155 642.174 666.666 633.334 666.666H166.667C157.826 666.666 149.348 663.155 143.097 656.903C136.846 650.652 133.334 642.174 133.334 633.333V300C133.334 291.159 136.846 282.681 143.097 276.43C149.348 270.178 157.826 266.666 166.667 266.666H633.334C642.174 266.666 650.653 270.178 656.904 276.43C663.155 282.681 666.667 291.159 666.667 300ZM433.334 433.333H500V500H433.334V566.666H366.667V500H300V433.333H366.667V366.666H433.334V433.333Z" fill="white"/>
</svg>
